<?xml version="1.0" encoding="iso-8859-1"?>
<!-- Generator: Adobe Illustrator 19.0.0, SVG Export Plug-In . SVG Version: 6.00 Build 0)  -->
<svg version="1.1" id="Capa_1" xmlns="http://www.w3.org/2000/svg" xmlns:xlink="http://www.w3.org/1999/xlink" x="0px" y="0px"
	 viewBox="0 0 512 512" style="enable-background:new 0 0 512 512;" xml:space="preserve">
<g>
	<g>
		<path d="M504.5,167.5h-26V145c0-4.142-3.358-7.5-7.5-7.5H41c-4.142,0-7.5,3.358-7.5,7.5v22.5h-26c-4.142,0-7.5,3.358-7.5,7.5v113
			c0,4.142,3.358,7.5,7.5,7.5s7.5-3.358,7.5-7.5V182.5h48.667c4.142,0,7.5-3.358,7.5-7.5c0-4.142-3.358-7.5-7.5-7.5H48.5v-15h415v15
			H96c-4.142,0-7.5,3.358-7.5,7.5c0,4.142,3.358,7.5,7.5,7.5h401v147h-48.75c-4.142,0-7.5,3.358-7.5,7.5c0,4.142,3.358,7.5,7.5,7.5
			h15.25v15h-415v-15h367.25c4.142,0,7.5-3.358,7.5-7.5c0-4.142-3.358-7.5-7.5-7.5H15V320c0-4.142-3.358-7.5-7.5-7.5
			S0,315.858,0,320v17c0,4.142,3.358,7.5,7.5,7.5h26V367c0,4.142,3.358,7.5,7.5,7.5h430c4.142,0,7.5-3.358,7.5-7.5v-22.5h26
			c4.142,0,7.5-3.358,7.5-7.5V175C512,170.858,508.642,167.5,504.5,167.5z"/>
	</g>
</g>
<g>
	<g>
		<path d="M289.069,216.5h-68c-4.142,0-7.5,3.358-7.5,7.5v45.982c0,4.142,3.358,7.5,7.5,7.5h5.757V288
			c0.001,4.142,3.359,7.5,7.501,7.5h41.485c4.142,0,7.5-3.358,7.5-7.5v-10.518h5.757c4.142,0,7.5-3.358,7.5-7.5V224
			C296.569,219.858,293.211,216.5,289.069,216.5z M281.57,262.482h-5.757c-4.142,0-7.5,3.358-7.5,7.5V280.5h-26.485v-10.518
			c0-4.142-3.358-7.5-7.5-7.5h-5.757V231.5h52.999V262.482z"/>
	</g>
</g>
<g>
	<g>
		<path d="M196.259,216.5h-68c-4.142,0-7.5,3.358-7.5,7.5v45.982c0,4.142,3.358,7.5,7.5,7.5h5.757V288c0,4.142,3.358,7.5,7.5,7.5
			h41.486c4.142,0,7.5-3.358,7.5-7.5v-10.518h5.757c4.142,0,7.5-3.358,7.5-7.5V224C203.759,219.858,200.401,216.5,196.259,216.5z
			 M188.759,262.482h-5.757c-4.142,0-7.5,3.358-7.5,7.5V280.5h-26.486v-10.518c0-4.142-3.358-7.5-7.5-7.5h-5.757V231.5h0h53V262.482
			z"/>
	</g>
</g>
<g>
	<g>
		<path d="M381.785,216.5h-68c-4.142,0-7.5,3.358-7.5,7.5v45.982c0,4.142,3.358,7.5,7.5,7.5h5.757V288c0,4.142,3.358,7.5,7.5,7.5
			h41.486c4.142,0,7.5-3.358,7.5-7.5v-10.518h5.757c4.142,0,7.5-3.358,7.5-7.5V224C389.285,219.858,385.927,216.5,381.785,216.5z
			 M374.285,262.482h-5.757c-4.142,0-7.5,3.358-7.5,7.5V280.5h-26.486v-10.518c0-4.142-3.358-7.5-7.5-7.5h-5.757V231.5h53V262.482z"
			/>
	</g>
</g>
<g>
	<g>
		<path d="M474.499,216.5h-68c-4.142,0-7.5,3.358-7.5,7.5v45.982c0,4.142,3.358,7.5,7.5,7.5h5.757V288
			c0.001,4.142,3.359,7.5,7.501,7.5h41.485c4.142,0,7.5-3.358,7.5-7.5v-10.518h5.757c4.142,0,7.5-3.358,7.5-7.5V224
			C481.999,219.858,478.641,216.5,474.499,216.5z M467,262.482h-5.757c-4.142,0-7.5,3.358-7.5,7.5V280.5h-26.485v-10.518
			c0-4.142-3.358-7.5-7.5-7.5H414V231.5h53V262.482z"/>
	</g>
</g>
<g>
	<g>
		<path d="M97.899,217.944H41.27c-4.142,0-7.5,3.358-7.5,7.5c0,4.142,3.358,7.5,7.5,7.5h56.629c4.142,0,7.5-3.358,7.5-7.5
			C105.399,221.302,102.041,217.944,97.899,217.944z"/>
	</g>
</g>
<g>
	<g>
		<path d="M97.899,238.314H41.27c-4.142,0-7.5,3.358-7.5,7.5c0,4.142,3.358,7.5,7.5,7.5h56.629c4.142,0,7.5-3.358,7.5-7.5
			C105.399,241.672,102.041,238.314,97.899,238.314z"/>
	</g>
</g>
<g>
	<g>
		<path d="M97.899,258.686H41.27c-4.142,0-7.5,3.358-7.5,7.5c0,4.142,3.358,7.5,7.5,7.5h56.629c4.142,0,7.5-3.358,7.5-7.5
			C105.399,262.044,102.041,258.686,97.899,258.686z"/>
	</g>
</g>
<g>
	<g>
		<path d="M97.899,279.056H41.27c-4.142,0-7.5,3.358-7.5,7.5c0,4.142,3.358,7.5,7.5,7.5h56.629c4.142,0,7.5-3.358,7.5-7.5
			C105.399,282.414,102.041,279.056,97.899,279.056z"/>
	</g>
</g>
<g>
</g>
<g>
</g>
<g>
</g>
<g>
</g>
<g>
</g>
<g>
</g>
<g>
</g>
<g>
</g>
<g>
</g>
<g>
</g>
<g>
</g>
<g>
</g>
<g>
</g>
<g>
</g>
<g>
</g>
</svg>
